<?xml version="1.0" encoding="utf-8"?>
<!-- Generator: Adobe Illustrator 17.0.1, SVG Export Plug-In . SVG Version: 6.00 Build 0)  -->
<!DOCTYPE svg PUBLIC "-//W3C//DTD SVG 1.1//EN" "http://www.w3.org/Graphics/SVG/1.1/DTD/svg11.dtd">
<svg version="1.1" xmlns="http://www.w3.org/2000/svg" xmlns:xlink="http://www.w3.org/1999/xlink" x="0px" y="0px" width="500px"
	 height="500px" viewBox="0 0 500 303.055" enable-background="new 0 0 500 303.055" xml:space="preserve">
<g id="Layer_1">
	<g>
		<g>
			<path fill="#D1D3D4" d="M241.349,93.487c-32.055,0-58.041,25.986-58.041,58.041c0,32.055,25.986,58.041,58.041,58.041
				c32.055,0,58.041-25.986,58.041-58.041C299.39,119.472,273.404,93.487,241.349,93.487z M241.349,202.341
				c-28.064,0-50.814-22.75-50.814-50.814s22.75-50.814,50.814-50.814c28.064,0,50.814,22.75,50.814,50.814
				S269.413,202.341,241.349,202.341z"/>
			<path fill="#F26522" d="M278.523,177.623c-1.537,0-3.002,0.311-4.335,0.872l-59.768-59.768c0.026-0.06,0.055-0.119,0.08-0.18
				h53.698c1.685,4.043,5.672,6.886,10.325,6.886c6.177,0,11.184-5.007,11.184-11.184c0-6.177-5.007-11.184-11.184-11.184
				c-4.653,0-8.64,2.843-10.325,6.886H214.5c-1.685-4.043-5.672-6.886-10.325-6.886c-6.177,0-11.184,5.007-11.184,11.184
				c0,6.177,5.007,11.184,11.184,11.184c1.424,0,2.781-0.277,4.034-0.762l59.839,59.839H214.5
				c-1.685-4.043-5.672-6.886-10.325-6.886c-6.177,0-11.184,5.007-11.184,11.184s5.007,11.184,11.184,11.184
				c4.653,0,8.64-2.843,10.325-6.886h53.698c1.685,4.043,5.672,6.886,10.325,6.886c6.177,0,11.184-5.007,11.184-11.184
				S284.7,177.623,278.523,177.623z"/>
		</g>
	</g>
</g>
</svg>
